<svg xmlns="http://www.w3.org/2000/svg" version="1.1" xmlns:xlink="http://www.w3.org/1999/xlink" xmlns:svgjs="http://svgjs.dev/svgjs" width="2000" height="515" viewBox="0 0 2000 515"><g transform="matrix(1,0,0,1,-1.2121212121212466,-0.3237882179246867)"><svg viewBox="0 0 396 102" data-background-color="#000000" preserveAspectRatio="xMidYMid meet" height="515" width="2000" xmlns="http://www.w3.org/2000/svg" xmlns:xlink="http://www.w3.org/1999/xlink"><g id="tight-bounds" transform="matrix(1,0,0,1,0.2400000000000091,0.06412892859867725)"><svg viewBox="0 0 395.52 101.87174214280266" height="101.87174214280266" width="395.52"><g><svg viewBox="0 0 546.0256466799467 140.63658950732355" height="101.87174214280266" width="395.52"><g transform="matrix(1,0,0,1,150.50564667994672,43.458747483355516)"><svg viewBox="0 0 395.52 53.71909454061252" height="53.71909454061252" width="395.52"><g id="textblocktransform"><svg viewBox="0 0 395.52 53.71909454061252" height="53.71909454061252" width="395.52" id="textblock"><g><svg viewBox="0 0 395.52 53.71909454061252" height="53.71909454061252" width="395.52"><g transform="matrix(1,0,0,1,0,0)"><svg width="395.52" viewBox="6.5 -35 262.83 35.7" height="53.71909454061252" data-palette-color="url(#d35f93d6-0a07-4803-a5c4-b9e514bf4162)"></svg></g></svg></g></svg></g></svg></g><g><svg viewBox="0 0 137.82385771717708 140.63658950732355" height="140.63658950732355" width="137.82385771717708"><g><svg version="1.1" xmlns="http://www.w3.org/2000/svg" xmlns:xlink="http://www.w3.org/1999/xlink" x="0" y="0" viewBox="0 0 98 100" enable-background="new 0 0 98.476 100" xml:space="preserve" id="icon-0" width="137.82385771717708" height="140.63658950732355" class="icon-icon-0" data-fill-palette-color="accent"></svg></g></svg></g></svg></g><defs></defs><mask id="f64083e2-cb8f-4fac-a1e6-2cf605bea19a"><g id="SvgjsG1745"><svg viewBox="0 0 395.52 101.87174214280266" height="101.87174214280266" width="395.52"><g><svg viewBox="0 0 546.0256466799467 140.63658950732355" height="101.87174214280266" width="395.52"><g transform="matrix(1,0,0,1,150.50564667994672,43.458747483355516)"><svg viewBox="0 0 395.52 53.71909454061252" height="53.71909454061252" width="395.52"><g id="SvgjsG1744"><svg viewBox="0 0 395.52 53.71909454061252" height="53.71909454061252" width="395.52" id="SvgjsSvg1743"><g><svg viewBox="0 0 395.52 53.71909454061252" height="53.71909454061252" width="395.52"><g transform="matrix(1,0,0,1,0,0)"><svg width="395.52" viewBox="6.5 -35 262.83 35.7" height="53.71909454061252" data-palette-color="url(#d35f93d6-0a07-4803-a5c4-b9e514bf4162)"><path d="M9.9 0L6.5 0 6.5-35 9.9-35 9.9 0ZM33.9 0L22.9 0 22.9-35 33.9-35Q39.7-35 44-32.8 48.3-30.6 50.7-26.68 53.1-22.75 53.1-17.5L53.1-17.5Q53.1-12.25 50.7-8.33 48.3-4.4 44-2.2 39.7 0 33.9 0L33.9 0ZM33.9-33.8L33.9-33.8 26.3-33.8 26.3-1.2 33.9-1.2Q41.15-1.2 45.22-5.5 49.3-9.8 49.3-17.5L49.3-17.5Q49.3-25.2 45.22-29.5 41.15-33.8 33.9-33.8ZM79 0L63.6 0 63.6-35 78.84-35 78.84-32.55 70.09-33.7Q67.8-34 67-34L67-34 67-18.75Q67.65-18.75 70.09-18.9L70.09-18.9 78.3-19.4 78.3-17.1 70.09-17.6Q67.65-17.75 67-17.75L67-17.75 67-1Q67.9-1 70.15-1.3L70.15-1.3 79-2.45 79 0ZM87.94 0L84.29 0 97.74-35 100.84-35 114.29 0 110.64 0 104.44-16.4 93.09-16.4 87.94 0ZM98.39-32.4L98.09-32.4 93.44-17.6 103.99-17.6 98.39-32.4ZM130.64 0.7L114.74-35 118.49-35 132.14-3.9 132.44-3.9 143.89-35 147.64-35 131.74 0.7 130.64 0.7ZM151.14 0L147.49 0 160.94-35 164.04-35 177.49 0 173.84 0 167.64-16.4 156.29-16.4 151.14 0ZM161.59-32.4L161.29-32.4 156.64-17.6 167.19-17.6 161.59-32.4ZM184.09-14L184.09-35 187.49-35 187.49-13.9Q187.49-7.85 190.46-4.48 193.44-1.1 198.84-1.1L198.84-1.1Q202.24-1.1 204.76-2.43 207.29-3.75 208.66-6.1 210.04-8.45 209.94-11.5L209.94-11.5 209.09-35 212.49-35 211.64-11.5Q211.44-5.5 208.06-2.4 204.69 0.7 198.44 0.7L198.44 0.7Q191.69 0.7 187.89-3.23 184.09-7.15 184.09-14L184.09-14ZM224.48 0L224.48-35 227.88-35 227.88-1Q228.83-1 230.88-1.3L230.88-1.3 239.18-2.55 239.18 0 224.48 0ZM256.43 0L253.03 0 253.03-34Q252.28-34 249.93-33.7L249.93-33.7 240.13-32.45 240.13-35 269.33-35 269.33-32.45 259.53-33.7Q257.18-34 256.43-34L256.43-34 256.43 0Z" opacity="1" transform="matrix(1,0,0,1,0,0)" fill="white" class="wordmark-text-0" id="SvgjsPath1742"></path></svg></g></svg></g></svg></g></svg></g><g><svg viewBox="0 0 137.82385771717708 140.63658950732355" height="140.63658950732355" width="137.82385771717708"><g><svg version="1.1" xmlns="http://www.w3.org/2000/svg" xmlns:xlink="http://www.w3.org/1999/xlink" x="0" y="0" viewBox="0 0 98 100" enable-background="new 0 0 98.476 100" xml:space="preserve" id="SvgjsSvg1741" width="137.82385771717708" height="140.63658950732355" class="icon-icon-0" data-fill-palette-color="accent"><path d="M69.577 53.883C69.577 42.665 60.483 33.571 49.269 33.571 38.049 33.571 28.955 42.665 28.955 53.883 28.955 60.478 32.111 68.957 36.987 74.845H61.551C66.42 68.958 69.577 60.478 69.577 53.883" fill="black"></path><polygon points="56.038,100 42.498,100 39.487,95.804 59.046,95.804 " fill="black"></polygon><path d="M61.505 79.173C61.505 80.223 60.65 81.075 59.604 81.075H38.871A1.902 1.902 0 0 1 38.871 77.273H59.604C60.65 77.273 61.505 78.126 61.505 79.173" fill="black"></path><path d="M61.657 85.358C61.657 86.408 60.802 87.259 59.75 87.259H39.018A1.899 1.899 0 1 1 39.018 83.46H59.75A1.9 1.9 0 0 1 61.657 85.358" fill="black"></path><path d="M61.417 91.824A1.9 1.9 0 0 1 59.517 93.73H38.781A1.9 1.9 0 0 1 36.883 91.824C36.883 90.777 37.731 89.927 38.781 89.927H59.517A1.897 1.897 0 0 1 61.417 91.824" fill="black"></path><polygon points="51.172,28.724 47.289,28.724 44.963,0 53.501,0 " fill="black"></polygon><polygon points="27.984,41.001 26.043,44.362 0,32.018 4.27,24.624 " fill="black"></polygon><polygon points="37.853,31.63 34.495,33.572 18.113,9.86 25.509,5.59 " fill="black"></polygon><polygon points="70.499,41.394 72.437,44.755 98.476,32.41 94.208,25.016 " fill="black"></polygon><polygon points="60.628,31.004 63.99,32.943 80.37,9.233 72.973,4.961 " fill="black"></polygon></svg></g></svg></g></svg></g><defs><mask></mask></defs></svg><rect width="395.52" height="101.87174214280266" fill="black" stroke="none" visibility="hidden"></rect></g></mask><linearGradient x1="0.054" x2="0.941" y1="0.5" y2="0.5" id="d35f93d6-0a07-4803-a5c4-b9e514bf4162"><stop stop-color="#8c8c8c" offset="0"></stop><stop stop-color="#e3e4e5" offset="0.498"></stop><stop stop-color="#8c8c8c" offset="1"></stop></linearGradient><rect width="395.52" height="101.87174214280266" fill="#000000" mask="url(#f64083e2-cb8f-4fac-a1e6-2cf605bea19a)" data-fill-palette-color="primary"></rect><mask id="d70e746d-79b5-4527-b175-88669d00dabe"><g id="SvgjsG1764"><svg viewBox="0 0 395.52 101.87174214280266" height="101.87174214280266" width="395.52"><g><svg viewBox="0 0 546.0256466799467 140.63658950732355" height="101.87174214280266" width="395.52"><g transform="matrix(1,0,0,1,150.50564667994672,43.458747483355516)"><svg viewBox="0 0 395.52 53.71909454061252" height="53.71909454061252" width="395.52"><g id="SvgjsG1763"><svg viewBox="0 0 395.52 53.71909454061252" height="53.71909454061252" width="395.52" id="SvgjsSvg1762"><g><svg viewBox="0 0 395.52 53.71909454061252" height="53.71909454061252" width="395.52"><g transform="matrix(1,0,0,1,0,0)"><svg width="395.52" viewBox="6.5 -35 262.83 35.7" height="53.71909454061252" data-palette-color="url(#d35f93d6-0a07-4803-a5c4-b9e514bf4162)"></svg></g></svg></g></svg></g></svg></g><g><svg viewBox="0 0 137.82385771717708 140.63658950732355" height="140.63658950732355" width="137.82385771717708"><g><svg version="1.1" xmlns="http://www.w3.org/2000/svg" xmlns:xlink="http://www.w3.org/1999/xlink" x="0" y="0" viewBox="0 0 98 100" enable-background="new 0 0 98.476 100" xml:space="preserve" id="SvgjsSvg1761" width="137.82385771717708" height="140.63658950732355" class="icon-icon-0" data-fill-palette-color="accent"><path d="M69.577 53.883C69.577 42.665 60.483 33.571 49.269 33.571 38.049 33.571 28.955 42.665 28.955 53.883 28.955 60.478 32.111 68.957 36.987 74.845H61.551C66.42 68.958 69.577 60.478 69.577 53.883" fill="white"></path><polygon points="56.038,100 42.498,100 39.487,95.804 59.046,95.804 " fill="white"></polygon><path d="M61.505 79.173C61.505 80.223 60.65 81.075 59.604 81.075H38.871A1.902 1.902 0 0 1 38.871 77.273H59.604C60.65 77.273 61.505 78.126 61.505 79.173" fill="white"></path><path d="M61.657 85.358C61.657 86.408 60.802 87.259 59.75 87.259H39.018A1.899 1.899 0 1 1 39.018 83.46H59.75A1.9 1.9 0 0 1 61.657 85.358" fill="white"></path><path d="M61.417 91.824A1.9 1.9 0 0 1 59.517 93.73H38.781A1.9 1.9 0 0 1 36.883 91.824C36.883 90.777 37.731 89.927 38.781 89.927H59.517A1.897 1.897 0 0 1 61.417 91.824" fill="white"></path><polygon points="51.172,28.724 47.289,28.724 44.963,0 53.501,0 " fill="white"></polygon><polygon points="27.984,41.001 26.043,44.362 0,32.018 4.27,24.624 " fill="white"></polygon><polygon points="37.853,31.63 34.495,33.572 18.113,9.86 25.509,5.59 " fill="white"></polygon><polygon points="70.499,41.394 72.437,44.755 98.476,32.41 94.208,25.016 " fill="white"></polygon><polygon points="60.628,31.004 63.99,32.943 80.37,9.233 72.973,4.961 " fill="white"></polygon></svg></g></svg></g></svg></g><defs><mask></mask></defs><mask><g id="SvgjsG1760"><svg viewBox="0 0 395.52 101.87174214280266" height="101.87174214280266" width="395.52"><g><svg viewBox="0 0 546.0256466799467 140.63658950732355" height="101.87174214280266" width="395.52"><g transform="matrix(1,0,0,1,150.50564667994672,43.458747483355516)"><svg viewBox="0 0 395.52 53.71909454061252" height="53.71909454061252" width="395.52"><g id="SvgjsG1759"><svg viewBox="0 0 395.52 53.71909454061252" height="53.71909454061252" width="395.52" id="SvgjsSvg1758"><g><svg viewBox="0 0 395.52 53.71909454061252" height="53.71909454061252" width="395.52"><g transform="matrix(1,0,0,1,0,0)"><svg width="395.52" viewBox="6.5 -35 262.83 35.7" height="53.71909454061252" data-palette-color="url(#d35f93d6-0a07-4803-a5c4-b9e514bf4162)"><path d="M9.9 0L6.5 0 6.5-35 9.9-35 9.9 0ZM33.9 0L22.9 0 22.9-35 33.9-35Q39.7-35 44-32.8 48.3-30.6 50.7-26.68 53.1-22.75 53.1-17.5L53.1-17.5Q53.1-12.25 50.7-8.33 48.3-4.4 44-2.2 39.7 0 33.9 0L33.9 0ZM33.9-33.8L33.9-33.8 26.3-33.8 26.3-1.2 33.9-1.2Q41.15-1.2 45.22-5.5 49.3-9.8 49.3-17.5L49.3-17.5Q49.3-25.2 45.22-29.5 41.15-33.8 33.9-33.8ZM79 0L63.6 0 63.6-35 78.84-35 78.84-32.55 70.09-33.7Q67.8-34 67-34L67-34 67-18.75Q67.65-18.75 70.09-18.9L70.09-18.9 78.3-19.4 78.3-17.1 70.09-17.6Q67.65-17.75 67-17.75L67-17.75 67-1Q67.9-1 70.15-1.3L70.15-1.3 79-2.45 79 0ZM87.94 0L84.29 0 97.74-35 100.84-35 114.29 0 110.64 0 104.44-16.4 93.09-16.4 87.94 0ZM98.39-32.4L98.09-32.4 93.44-17.6 103.99-17.6 98.39-32.4ZM130.64 0.7L114.74-35 118.49-35 132.14-3.9 132.44-3.9 143.89-35 147.64-35 131.74 0.7 130.64 0.7ZM151.14 0L147.49 0 160.94-35 164.04-35 177.49 0 173.84 0 167.64-16.4 156.29-16.4 151.14 0ZM161.59-32.4L161.29-32.4 156.64-17.6 167.19-17.6 161.59-32.4ZM184.09-14L184.09-35 187.49-35 187.49-13.9Q187.49-7.85 190.46-4.48 193.44-1.1 198.84-1.1L198.84-1.1Q202.24-1.1 204.76-2.43 207.29-3.75 208.66-6.1 210.04-8.45 209.94-11.5L209.94-11.5 209.09-35 212.49-35 211.64-11.5Q211.44-5.5 208.06-2.4 204.69 0.7 198.44 0.7L198.44 0.7Q191.69 0.7 187.89-3.23 184.09-7.15 184.09-14L184.09-14ZM224.48 0L224.48-35 227.88-35 227.88-1Q228.83-1 230.88-1.3L230.88-1.3 239.18-2.55 239.18 0 224.48 0ZM256.43 0L253.03 0 253.03-34Q252.28-34 249.93-33.7L249.93-33.7 240.13-32.45 240.13-35 269.33-35 269.33-32.45 259.53-33.7Q257.18-34 256.43-34L256.43-34 256.43 0Z" opacity="1" transform="matrix(1,0,0,1,0,0)" fill="black" class="wordmark-text-0" id="SvgjsPath1757"></path></svg></g></svg></g></svg></g></svg></g><g><svg viewBox="0 0 137.82385771717708 140.63658950732355" height="140.63658950732355" width="137.82385771717708"><g><svg version="1.1" xmlns="http://www.w3.org/2000/svg" xmlns:xlink="http://www.w3.org/1999/xlink" x="0" y="0" viewBox="0 0 98 100" enable-background="new 0 0 98.476 100" xml:space="preserve" id="SvgjsSvg1756" width="137.82385771717708" height="140.63658950732355" class="icon-icon-0" data-fill-palette-color="accent"><path d="M69.577 53.883C69.577 42.665 60.483 33.571 49.269 33.571 38.049 33.571 28.955 42.665 28.955 53.883 28.955 60.478 32.111 68.957 36.987 74.845H61.551C66.42 68.958 69.577 60.478 69.577 53.883" fill="black"></path><polygon points="56.038,100 42.498,100 39.487,95.804 59.046,95.804 " fill="black"></polygon><path d="M61.505 79.173C61.505 80.223 60.65 81.075 59.604 81.075H38.871A1.902 1.902 0 0 1 38.871 77.273H59.604C60.65 77.273 61.505 78.126 61.505 79.173" fill="black"></path><path d="M61.657 85.358C61.657 86.408 60.802 87.259 59.75 87.259H39.018A1.899 1.899 0 1 1 39.018 83.46H59.75A1.9 1.9 0 0 1 61.657 85.358" fill="black"></path><path d="M61.417 91.824A1.9 1.9 0 0 1 59.517 93.73H38.781A1.9 1.9 0 0 1 36.883 91.824C36.883 90.777 37.731 89.927 38.781 89.927H59.517A1.897 1.897 0 0 1 61.417 91.824" fill="black"></path><polygon points="51.172,28.724 47.289,28.724 44.963,0 53.501,0 " fill="black"></polygon><polygon points="27.984,41.001 26.043,44.362 0,32.018 4.27,24.624 " fill="black"></polygon><polygon points="37.853,31.63 34.495,33.572 18.113,9.86 25.509,5.59 " fill="black"></polygon><polygon points="70.499,41.394 72.437,44.755 98.476,32.41 94.208,25.016 " fill="black"></polygon><polygon points="60.628,31.004 63.99,32.943 80.37,9.233 72.973,4.961 " fill="black"></polygon></svg></g></svg></g></svg></g><defs><mask></mask></defs></svg><rect width="395.52" height="101.87174214280266" fill="black" stroke="none" visibility="hidden"></rect></g></mask></svg><rect width="395.52" height="101.87174214280266" fill="black" stroke="none" visibility="hidden"></rect></g></mask><linearGradient x1="0.054" x2="0.941" y1="0.5" y2="0.5" id="239f2dc2-16ec-4082-9835-b8270d06e629"><stop stop-color="#8c8c8c" offset="0"></stop><stop stop-color="#e3e4e5" offset="0.498"></stop><stop stop-color="#8c8c8c" offset="1"></stop></linearGradient><rect width="395.52" height="101.87174214280266" fill="#000000" mask="url(#d70e746d-79b5-4527-b175-88669d00dabe)" data-fill-palette-color="accent"></rect></svg><rect width="395.52" height="101.87174214280266" fill="none" stroke="none" visibility="hidden"></rect></g></svg></g></svg>